<svg width="124" height="47" viewBox="0 0 124 47" fill="none" xmlns="http://www.w3.org/2000/svg">
<path d="M102.936 46.1898C101.936 46.067 101.056 45.5634 100.452 44.7636C99.9268 44.0704 99.6704 43.1947 99.7314 42.3118C99.7891 41.4174 100.174 40.5999 100.819 39.9763C101.143 39.6622 101.38 39.4924 101.768 39.3053C102.334 39.0251 102.934 38.9097 103.608 38.9492C105.195 39.0399 106.565 40.2107 106.914 41.778C107.093 42.5858 106.996 43.4151 106.635 44.1674C105.972 45.5491 104.458 46.3777 102.935 46.1909L102.936 46.1898ZM17.171 46.1404C16.6638 46.0909 16.1567 45.8478 15.7811 45.4975C15.4068 45.1463 15.2196 44.801 15.025 44.1047C14.0178 40.4687 13.2203 38.0936 12.2323 35.7844C10.0666 30.7256 6.95611 26.2706 1.4191 20.2926C0.561771 19.3661 0.513449 19.3117 0.412435 19.1602C-0.550694 17.7193 0.258236 15.7758 1.95534 15.4268L2.13015 15.3856L2.20437 15.0345C2.61996 13.111 3.60297 11.0801 4.84506 9.58104C5.05368 9.33788 5.64327 8.73196 6.03116 8.37546C8.20356 6.38071 10.5889 5.20364 13.1016 4.88621C14.0093 4.77164 15.1225 4.79554 16.0689 4.9439C18.4107 5.32142 20.6904 6.53186 22.5498 8.38772C24.6735 10.5056 26.1528 13.3191 26.7094 16.3031C26.7671 16.435 26.7671 16.5438 26.7671 16.5463C26.7671 16.5499 26.9378 16.4886 27.1374 16.4053C28.025 16.041 30.1218 15.2282 30.1755 15.2282C30.2333 15.2282 30.2333 15.1541 30.1178 14.9356C29.9051 14.3042 29.722 13.4241 29.6231 12.66C29.5101 11.806 29.5018 10.6265 29.5488 9.77095C29.8432 6.8399 31.2036 4.29428 33.4146 2.52208C34.768 1.43683 36.5193 0.603821 38.1401 0.274191C38.836 0.133239 39.0971 0.106863 39.8985 0.106863C40.6423 0.106286 40.7308 0.110524 41.3022 0.212376C43.0244 0.510766 44.6023 1.43462 45.7063 2.79088C46.5638 3.84464 47.1053 5.08163 47.3154 6.46354C47.3897 6.88969 47.4062 7.70415 47.3897 8.16311C47.1769 10.5631 45.8475 12.7125 43.4389 14.4989C42.0669 15.5161 40.1836 16.5205 37.8233 17.4929C37.6105 17.5835 37.4275 17.6577 37.42 17.6627C37.3458 17.6791 38.0055 18.2116 38.3328 18.4465C39.0485 18.9625 39.8578 19.2986 40.6986 19.4274C41.0902 19.485 41.8243 19.485 42.2286 19.431C43.3565 19.2802 44.5537 18.8688 45.5899 18.2758C47.9487 16.9254 50.1335 14.2454 51.0046 11.6329C51.1176 11.3016 51.2091 10.9818 51.2916 10.572C51.3493 10.431 51.3823 10.2398 51.4087 10.1483C51.4664 10.0577 51.5167 9.81366 51.5744 9.60924C52.1236 7.40875 53.0433 5.57852 54.3866 3.99921C54.6736 3.65878 55.3708 2.96697 55.6979 2.69166C56.6962 1.85172 57.7292 1.22585 58.8615 0.775628C59.8387 0.387398 60.7274 0.164021 61.8139 0.0346061C62.2056 -0.00662878 63.629 -0.0148208 64.022 0.030947C65.0804 0.146346 65.979 0.364776 66.9303 0.741468C67.9882 1.15773 69.0324 1.78468 69.9356 2.54565C70.4666 2.99406 71.2418 3.79477 71.5809 4.24762L71.6938 4.39104L71.9437 4.40749C72.5432 4.45698 73.0249 4.67209 73.4376 5.05702C73.7955 5.39415 74.0676 5.87553 74.1583 6.35122C74.216 6.63148 74.216 6.84249 74.216 7.19116C74.1583 7.52499 74.1583 7.92641 74.1154 8.76223C73.9942 11.4715 73.7864 13.3406 73.256 16.5452C72.8446 19.0642 72.1752 21.432 71.1202 24.1215C71.0459 24.2352 71.0294 24.3309 71.0377 24.335C71.0377 24.3386 71.1746 24.2855 71.3329 24.2146C73.1185 23.4563 74.4826 22.4224 75.5175 21.044C76.2209 20.1075 76.8042 18.9551 77.2149 17.6864C77.4392 17.0023 77.5093 16.7107 77.5439 16.5053C77.5439 16.3973 77.6016 16.1418 77.6264 15.9366C77.727 15.2549 77.8969 14.4662 78.1022 13.7614C79.4903 9.03028 83.0797 5.69848 87.582 4.96166C88.5622 4.80092 89.6604 4.78361 90.6738 4.91222C92.7422 5.17269 94.7198 6.0555 96.3398 7.44193C97.1281 8.1162 97.9019 8.98598 98.387 9.74216L98.4694 9.87075L98.6739 9.87125C99.6058 9.87417 100.434 10.3741 100.85 11.1855C101.033 11.5465 101.121 11.8795 101.121 12.295C101.121 12.6106 101.063 12.8192 100.904 13.6851C100.634 15.0161 100.552 15.4025 100.444 16.0106C100.019 18.3069 99.7814 20.2269 99.6874 22.0883C99.6296 22.6892 99.6296 24.0723 99.6874 24.5896C99.8045 26.6417 100.207 28.1915 100.864 29.1995C101.002 29.413 101.139 29.577 101.408 29.8507C101.699 30.1523 101.869 30.4252 101.987 30.7872C102.278 31.6534 102.044 32.6173 101.401 33.2633C100.9 33.7645 100.293 33.9978 99.5702 33.9697C98.8816 33.9368 98.3433 33.6771 97.7789 33.0825C97.2479 32.5294 96.8259 31.9447 96.4427 31.257C95.8573 30.203 95.389 28.8262 95.1398 27.4225C95.0821 27.2816 95.0821 27.1604 95.0821 27.1563C95.0821 27.1526 94.965 27.2304 94.8322 27.3145C92.6282 28.8154 89.8946 29.4191 87.0929 29.024C84.2882 28.6283 81.6128 27.1971 79.8556 25.1531C79.6726 24.9347 79.2495 24.3989 79.1902 24.302C79.1902 24.2856 79.116 24.2856 79.0995 24.3515C77.2558 26.6127 74.8803 28.194 71.7733 29.2309C70.7931 29.5582 69.5463 29.878 68.4527 30.0809L68.1575 30.1303L67.9043 30.5631C66.9473 32.1897 65.6916 34.1127 64.8167 35.2906C63.9049 36.5187 63.156 37.3899 62.4522 38.0431C60.8298 39.549 59.2489 40.4899 57.5021 40.9884C56.1147 41.384 54.692 41.4261 53.3903 41.1079C51.485 40.6422 49.9721 39.4556 49.1484 37.7816C48.7047 36.8854 48.4961 36.0302 48.4722 35.0188C48.4145 33.7417 48.7047 32.6081 49.3144 31.4043C49.9139 30.2278 50.7667 29.2776 51.9291 28.5003C53.5756 27.3986 55.6464 26.76 58.9296 26.3413C59.7228 26.2399 60.166 26.1938 62.7618 25.9366C63.3976 25.8789 64.1604 25.7948 64.4578 25.7618C64.7538 25.7206 65.0069 25.7041 65.0193 25.7041C65.077 25.7041 66.0176 23.7545 65.9894 23.7271C65.9894 23.7227 65.9317 23.7308 65.8888 23.7436C65.5978 23.8482 64.9408 24.0147 64.5248 24.0914C63.7612 24.2324 63.2309 24.2785 62.4069 24.2785C61.5263 24.2771 60.9184 24.2208 60.0598 24.0428C57.7302 23.5721 55.5287 22.3871 53.9491 20.7521C53.3999 20.1825 52.7922 19.3991 52.4981 18.8763C52.4404 18.8269 52.4404 18.7716 52.4239 18.7724C52.4239 18.7732 52.3332 18.8549 52.254 18.9538C51.615 19.7063 50.7028 20.5769 49.8633 21.237C48.2816 22.4803 46.646 23.3135 44.7044 23.8657C43.513 24.2029 42.2413 24.3595 41.0619 24.31C37.8994 24.1773 35.123 22.6444 32.8038 19.7482C32.6908 19.6081 32.5877 19.4943 32.5836 19.4943C32.5259 19.4943 31.0261 20.0689 30.3001 20.3524C28.9352 20.8849 27.822 21.3584 26.7928 21.8485L26.5685 21.954L26.4679 22.2697C26.068 23.7239 25.3921 25.0962 24.5127 26.264C23.5858 27.5 23.2022 27.9269 22.6315 28.3687C21.7479 29.0528 20.7653 29.4182 19.8117 29.4182C19.4044 29.4182 19.0622 29.3687 18.6687 29.2319C18.0065 29.0119 17.4464 28.6063 17.0167 28.0326C16.8452 27.8076 16.6135 27.3534 16.5203 27.0709C16.1047 25.7974 16.4073 24.3256 17.3646 22.9884C17.5691 22.7007 17.7678 22.4649 18.1719 22.0297C18.3549 21.8261 18.5586 21.6176 18.5916 21.5648C18.7087 21.4329 19.3189 20.87 19.6217 20.6121C20.2484 20.0805 21.2336 19.3711 21.9018 18.9706C21.976 18.9293 22.0387 18.8799 22.0428 18.8659C22.1005 18.8247 22.0428 18.1405 21.9851 17.7026C21.8144 16.4 21.3732 15.0991 20.6984 13.9126C20.4823 13.5466 20.0791 12.9478 19.8027 12.6025C19.5075 12.2291 18.9814 11.6841 18.6458 11.3954C17.725 10.6016 16.7206 10.0619 15.6992 9.81146C15.174 9.68288 14.8026 9.64661 14.1924 9.65815C13.5583 9.66641 13.1291 9.74882 12.5135 9.94499C11.3233 10.3316 10.1439 11.0917 8.98083 12.2264C8.58914 12.6056 8.39536 12.8422 8.12242 13.2555C7.40255 14.3501 6.94836 15.538 6.81659 16.6722C6.75887 16.9821 6.75887 17.5654 6.81659 17.8553C6.87431 18.3531 7.02521 18.8862 7.23219 19.3687C7.34516 19.6152 7.3567 19.6432 7.6618 19.9894C10.4777 23.2527 12.643 26.2312 14.3266 29.1528C16.4711 32.8776 18.0136 36.7642 19.5421 42.2912C19.8126 43.274 19.8167 43.3003 19.8332 43.6072C19.8909 44.689 19.2139 45.651 18.1774 46.0074C17.8863 46.1079 17.46 46.1533 17.1457 46.1178L17.171 46.1404ZM55.5062 36.4657C56.5482 36.3453 57.669 35.7815 58.7959 34.8074C59.4342 34.2551 60.1949 33.3788 61.0104 32.2597C61.426 31.686 61.9412 30.9331 61.9251 30.9187C61.9251 30.9143 61.1252 30.9929 60.2944 31.0819C56.8682 31.4594 55.0282 32.0214 54.0826 32.9801C53.8995 33.1722 53.7123 33.4145 53.5911 33.6849C53.3751 34.1152 53.3083 34.4276 53.3083 34.8362C53.3083 35.2236 53.3908 35.517 53.5581 35.7837C53.8872 36.3006 54.646 36.5643 55.5101 36.4654L55.5062 36.4657ZM89.4737 24.2587C92.4153 23.9216 94.3983 21.6983 95.0356 18.0224C95.1767 17.1804 95.2187 16.7818 95.2187 16.0839C95.2187 14.1114 94.8031 12.8566 93.7583 11.7116C93.5381 11.4693 93.1736 11.133 92.9089 10.9302C92.1197 10.3194 91.1662 9.91149 90.1432 9.74688C89.8233 9.69746 88.9934 9.68919 88.6368 9.73043C87.8774 9.8211 87.2337 10.0115 86.5241 10.3618C84.4098 11.4083 82.9301 13.6004 82.4626 16.3784C82.2837 17.4419 82.221 18.7697 82.3257 19.4586C82.4461 20.3006 82.7867 21.0673 83.3457 21.7946C83.5618 22.0781 84.1275 22.6265 84.447 22.8645C85.4903 23.6442 86.693 24.1178 88.003 24.2646C88.3518 24.3058 89.1312 24.3058 89.4706 24.2639L89.4737 24.2587ZM62.9618 19.4318C65.6825 19.1862 67.6003 17.408 68.451 14.3426C68.6134 13.7499 68.7049 13.2557 68.8253 12.4456C68.883 12.0631 68.883 12.0013 68.883 11.2467C68.883 10.4257 68.883 10.201 68.7824 9.69619C68.5911 8.51681 68.1351 7.59618 67.3293 6.7649C66.6449 6.05932 65.959 5.58931 65.1366 5.25869C63.4438 4.57784 61.4587 4.74599 59.8171 5.70957C57.8291 6.87634 56.507 9.03182 56.0909 11.7847C55.9491 12.7353 55.9078 13.9797 55.987 14.596C56.0958 15.3016 56.349 15.9852 56.7506 16.5807C56.9963 16.9459 57.162 17.1495 57.4853 17.47C58.3991 18.3793 59.6503 19.0337 60.9972 19.3088C61.2718 19.3583 61.6718 19.4201 61.9321 19.4407C62.1522 19.4572 62.7253 19.449 62.9451 19.4363L62.9618 19.4318ZM35.4314 13.2438C37.6247 12.3606 39.208 11.565 40.3245 10.7833C41.1598 10.1989 41.8267 9.53504 42.1878 8.92829C42.737 8.00378 42.7188 6.93972 42.1301 6.05347C41.7425 5.4773 41.1419 5.09581 40.425 4.97943C40.2205 4.93819 39.6787 4.93819 39.4649 4.98089C38.6256 5.11278 37.783 5.4499 36.9564 5.98955C36.3099 6.41241 35.7492 6.97144 35.3394 7.59822C35.1695 7.85952 34.9007 8.39611 34.7902 8.68618C34.3243 9.992 34.2592 11.5605 34.6533 13.0764C34.7111 13.2586 34.7539 13.4276 34.7539 13.454C34.7539 13.4704 34.754 13.4952 34.8282 13.4952C34.8282 13.4952 35.1283 13.3798 35.4812 13.2397L35.4314 13.2438ZM106.627 37.148C106.102 37.0738 105.579 36.8142 105.21 36.4325C104.84 36.0624 104.65 35.6602 104.548 35.1405C104.548 35.0663 104.491 34.8841 104.491 34.7292C104.491 34.4588 104.491 34.4159 104.732 33.2605C105.461 29.6368 106.479 24.0728 107.713 16.9924C108.12 14.6454 108.128 14.61 108.256 14.0569C109.131 10.2095 110.961 7.35277 113.504 5.86141C113.799 5.68831 114.373 5.41464 114.695 5.29594C115.221 5.10306 115.767 4.9646 116.34 4.88629C116.732 4.83686 117.661 4.83686 118.035 4.88555C118.663 4.97622 119.22 5.12212 119.752 5.3422C120.244 5.54579 120.914 5.9398 121.304 6.25155C122.667 7.34726 123.553 8.88338 123.867 10.6902C124.017 11.5664 124.038 12.5257 123.941 13.4875C123.816 14.498 123.489 15.644 123.022 16.7229C122.584 17.7412 122.126 18.5554 121.185 19.9723C117.167 26.0222 112.874 31.719 109.251 35.8135C108.59 36.5603 108.413 36.7169 108.019 36.9146C107.607 37.1215 107.094 37.2072 106.634 37.1462L106.627 37.148ZM112.126 24.4457C113.099 23.1287 114.201 21.5871 115.169 20.1875C116.052 18.9115 117.375 16.9407 117.717 16.394C118.479 15.169 118.945 14.0175 119.113 12.9315C119.171 12.554 119.171 11.8776 119.113 11.5771C119 10.9647 118.818 10.5742 118.456 10.2128C118.278 10.0315 118.202 9.97876 118.049 9.89715C117.597 9.65893 117.051 9.62926 116.497 9.81472C116.251 9.89715 115.879 10.0974 115.632 10.2837C114.387 11.2162 113.43 13.0616 112.933 15.4868C112.875 15.6517 112.717 16.6704 112.533 17.7504C112.041 20.5503 111.274 24.8998 111.139 25.6138C111.139 25.6715 111.139 25.7399 111.139 25.7564C111.139 25.7976 111.472 25.3509 112.14 24.448L112.126 24.4457Z" fill="#569CCD"/>
</svg>
